<svg id="Layer_1" enable-background="new 0 0 512 512" height="512" viewBox="0 0 512 512" width="512" xmlns="http://www.w3.org/2000/svg"><g><g clip-rule="evenodd" fill-rule="evenodd"><path d="m352 422h-192-24l-10 80h260l-10-80z" fill="#c68a65"/><path d="m231.586 320.75c-10.949 42.315-35.606 101.25-71.586 101.25h192c-35.979 0-60.637-58.935-71.585-101.25z" fill="#c7d9da"/><path d="m231.586 320.75h48.829 5.585c11 0 20-8.999 20-20 0-3.29-.805-6.402-2.229-9.147-3.335-6.432-10.062-10.852-17.771-10.852h-60c-7.71 0-14.437 4.421-17.771 10.852-1.423 2.745-2.229 5.857-2.229 9.148 0 11 9 20 20 20h5.586z" fill="#a2c0c1"/><path d="m226 280.751h60c7.71 0 14.437 4.421 17.77 10.853 48.045-19.14 82.23-66.197 82.23-120.853v-120.751h-260v120.751c0 54.656 34.185 101.714 82.229 120.853 3.334-6.433 10.061-10.853 17.771-10.853z" fill="#c7d9da"/><path d="m126 50h260c11 0 20-8.999 20-20 0-11-9-20-20-20h-260c-11 0-20 8.999-20 20 0 11 9 20 20 20z" fill="#a2c0c1"/></g><g><path d="m276.807 452h-41.614c-5.523 0-10 4.477-10 10s4.477 10 10 10h41.614c5.522 0 10-4.477 10-10s-4.477-10-10-10z"/><path d="m456 80.001h-60v-21.722c11.639-4.128 20-15.243 20-28.28 0-16.542-13.458-30-30-30h-260c-16.542 0-30 13.458-30 30 0 13.036 8.361 24.151 20 28.279v21.722h-60c-5.523 0-10 4.477-10 10v70c0 44.112 35.888 80 80 80h8.455c1.922 3.35 3.976 6.639 6.187 9.848 14.155 20.546 33.26 36.792 55.57 47.392-.135 1.152-.212 2.322-.212 3.51 0 14.011 9.657 25.807 22.664 29.089-12.017 40.037-33.37 82.161-58.664 82.161h-24c-5.043 0-9.297 3.755-9.923 8.76l-10 80c-.356 2.846.528 5.708 2.426 7.858s4.629 3.382 7.497 3.382h260c2.868 0 5.599-1.231 7.497-3.382s2.781-5.012 2.426-7.858l-10-80c-.626-5.004-4.88-8.76-9.923-8.76h-24c-15.309 0-28.243-16.076-36.398-29.562-10.481-17.331-17.799-37.745-22.262-52.599 13.005-3.283 22.66-15.078 22.66-29.089 0-1.188-.077-2.357-.212-3.51 22.315-10.602 41.421-26.851 55.576-47.401 2.208-3.206 4.26-6.492 6.18-9.838h8.456c44.111 0 79.999-35.888 79.999-80v-70c.001-5.523-4.477-10-9.999-10zm-390 80v-60h50v70.75c0 16.98 3.08 33.595 8.997 49.225-32.621-.54-58.997-27.227-58.997-59.975zm308.672 331.999h-237.344l7.5-60h222.345zm-62.094-80h-113.155c4.859-5.326 9.545-11.705 14.045-19.136 12.782-21.11 21.173-45.982 25.762-62.113h33.54c4.593 16.148 12.967 40.955 25.717 62.038 4.514 7.463 9.215 13.867 14.091 19.211zm-26.578-101.25h-60c-5.514 0-10-4.486-10-10s4.486-10 10-10h60c5.514 0 10 4.486 10 10 0 5.515-4.486 10-10 10zm20.948-31.447c-5.411-5.286-12.804-8.553-20.948-8.553h-60c-8.144 0-15.537 3.267-20.948 8.553-42.16-19.851-69.052-61.742-69.052-108.553v-110.75h74.997c5.523 0 10-4.477 10-10s-4.477-10-10-10h-84.997c-5.514 0-10-4.486-10-10s4.486-10 10-10h260c5.514 0 10 4.486 10 10s-4.486 10-10 10h-85.004c-5.522 0-10 4.477-10 10s4.478 10 10 10h75.004v110.75c0 46.808-26.892 88.7-69.052 108.553zm139.052-119.302c0 32.748-26.375 59.435-58.996 59.975 5.916-15.631 8.996-32.246 8.996-49.226v-70.75h50z"/><path d="m256 60c5.523 0 10-4.477 10-10s-4.477-10-10-10h-.007c-5.523 0-9.996 4.477-9.996 10s4.48 10 10.003 10z"/><path d="m275.998 190.801h-24.096c2.202-2.025 4.963-4.193 8.184-6.678 11.437-8.824 25.67-19.806 25.911-40.492.18-15.193-9.537-28.313-23.629-31.907-13.468-3.436-26.607 2.695-33.463 15.622-2.588 4.879-.73 10.932 4.149 13.52s10.932.73 13.52-4.149c3.407-6.422 8.262-6.274 10.852-5.613 4.326 1.103 8.655 5.332 8.573 12.292-.12 10.262-6.93 16.25-18.131 24.892-10.25 7.909-21.868 16.873-21.868 32.513 0 5.523 4.477 10 10 10h39.997c5.522 0 10-4.477 10-10s-4.477-10-9.999-10z"/></g></g></svg>