<svg id="Layer_1" enable-background="new 0 0 512.002 512.002" height="512" viewBox="0 0 512.002 512.002" width="512" xmlns="http://www.w3.org/2000/svg"><g><g clip-rule="evenodd" fill-rule="evenodd"><g fill="#cbe558"><path d="m64.597 103.835c7.795-13.528 8.364-30.728-.003-45.221-8.368-14.494-23.549-22.601-39.161-22.614-7.795 13.528-8.365 30.728.004 45.221 8.367 14.494 23.547 22.6 39.16 22.614z"/><path d="m114.683 119.551c-15.612.013-30.793 8.12-39.161 22.614-8.368 14.493-7.798 31.693-.003 45.221 15.613-.013 30.793-8.12 39.161-22.614s7.798-31.694.003-45.221z"/><ellipse cx="43.917" cy="242.391" rx="22.607" ry="39.164" transform="matrix(.5 -.866 .866 .5 -187.958 159.23)"/><ellipse cx="133.345" cy="300.793" rx="22.607" ry="39.164"/><path d="m175.524 398.758c-7.818-13.514-22.429-22.607-39.164-22.607-16.736 0-31.347 9.093-39.164 22.607 7.818 13.515 22.429 22.608 39.164 22.608 16.735-.001 31.346-9.094 39.164-22.608z"/><path d="m375.642 376.151c-16.735 0-31.346 9.093-39.164 22.607 7.818 13.515 22.429 22.608 39.164 22.608 16.736 0 31.346-9.093 39.164-22.608-7.818-13.514-22.428-22.607-39.164-22.607z"/><ellipse cx="378.656" cy="300.793" rx="22.607" ry="39.164"/><path d="m434.167 261.973c13.528 7.795 30.727 8.364 45.221-.003 14.493-8.368 22.6-23.548 22.613-39.161-13.528-7.795-30.728-8.364-45.221.004-14.493 8.367-22.6 23.547-22.613 39.16z"/><path d="m397.322 164.771c8.368 14.493 23.548 22.6 39.161 22.614 7.795-13.528 8.364-30.728-.003-45.221-8.368-14.493-23.548-22.6-39.161-22.614-7.796 13.528-8.365 30.728.003 45.221z"/><path d="m447.405 103.835c15.613-.013 30.793-8.12 39.161-22.614 8.368-14.493 7.798-31.693.004-45.221-15.613.013-30.793 8.12-39.161 22.614-8.369 14.493-7.799 31.693-.004 45.221z"/></g><path d="m263.638 216.401c27.392-21.134 56.752-43.788 57.283-89.105.251-21.363-7.881-39.069-20.246-51.507-8.375-8.424-18.705-14.397-29.727-17.44-11.309-3.123-23.312-3.212-34.711.225-15.367 4.632-29.444 15.383-38.978 33.357-5.134 9.751-1.392 21.819 8.359 26.953s21.818 1.392 26.953-8.359c4.026-7.591 9.425-11.967 15.071-13.669 4.148-1.25 8.534-1.214 12.68-.069 4.434 1.224 8.628 3.665 12.07 7.128 5.309 5.34 8.797 13.187 8.683 22.913-.305 25.983-21.779 42.553-41.814 58.011-24.918 19.226-48.259 37.236-48.259 71.122 0 11.046 8.954 20 20 20h89.995c11.046 0 20-8.954 20-20s-8.954-20-20-20h-60.27c6.08-6.573 14.357-12.961 22.911-19.56z" fill="#a2c0c1"/></g><g><path d="m233.154 176.921c-25.639 19.781-52.15 40.236-52.15 79.038 0 16.542 13.458 30 30 30h89.995c16.542 0 30-13.458 30-30s-13.458-30-30-30h-33.377c.705-.545 1.414-1.092 2.126-1.642 17.681-13.642 35.964-27.748 48.122-48.497 2.792-4.766 1.193-10.892-3.572-13.684-4.765-2.79-10.891-1.192-13.684 3.572-10.194 17.397-26.915 30.299-43.084 42.774-8.993 6.938-17.488 13.492-24.142 20.685-2.698 2.917-3.414 7.155-1.822 10.797 1.592 3.641 5.188 5.994 9.163 5.994h60.27c5.514 0 10 4.486 10 10s-4.486 10-10 10h-89.995c-5.514 0-10-4.486-10-10 0-28.972 20.561-44.835 44.368-63.204 21.253-16.398 45.343-34.984 45.705-65.811.223-19.104-11.066-35.097-28.092-39.799-15.782-4.358-30.82 2.806-39.261 18.719-2.557 4.855-8.587 6.729-13.445 4.17-4.856-2.557-6.728-8.589-4.184-13.419 12.873-24.269 37.284-35.503 62.192-28.627 12.541 3.463 23.69 11.3 31.394 22.066 3.215 4.491 9.46 5.526 13.952 2.313 4.492-3.214 5.527-9.46 2.314-13.952-10.36-14.479-25.395-25.028-42.335-29.706-17.062-4.714-34.245-3.375-49.688 3.871-14.903 6.99-27.178 18.977-35.512 34.689-7.695 14.614-2.065 32.765 12.549 40.461 14.615 7.694 32.766 2.064 40.446-12.522 2.801-5.282 7.9-11.094 16.255-8.784 10.045 2.773 13.505 12.661 13.416 20.285-.248 21.144-18.549 35.264-37.924 50.213z"/><path d="m506.994 214.143c-17.041-9.816-38.198-9.815-55.213.009-.407.235-.807.479-1.206.724 5.735-31.11 8.127-65.27 7.142-102.031 15.598-2.991 29.428-12.627 37.51-26.623 9.824-17.016 9.827-38.173.008-55.214-1.787-3.098-5.09-5.008-8.666-5.008-.002 0-.005 0-.008 0-19.667.016-37.988 10.597-47.813 27.613-9.389 16.262-9.801 36.303-1.248 52.923.272 7.116.415 14.065.434 20.851-10.333-11.193-25.046-17.823-40.606-17.837-.003 0-.006 0-.009 0-3.576 0-6.879 1.909-8.665 5.008-9.819 17.041-9.816 38.197.007 55.213 9.272 16.061 26.116 26.384 44.516 27.507-4.976 33.528-13.604 61.942-24.712 86.236-4.201-12.685-12.93-23.675-24.802-30.542-3.098-1.79-6.917-1.79-10.015 0-17.024 9.848-27.6 28.171-27.6 47.82 0 17.64 8.528 34.208 22.589 44.537-34.645 39.583-76.281 62.337-110.108 80.821-.848.464-1.691.924-2.529 1.382-.838-.458-1.68-.918-2.529-1.382-33.827-18.484-75.463-41.239-110.108-80.821 14.061-10.33 22.589-26.898 22.589-44.537 0-19.648-10.576-37.973-27.6-47.82-3.098-1.79-6.917-1.79-10.015 0-11.871 6.867-20.601 17.857-24.802 30.542-11.108-24.294-19.736-52.708-24.712-86.236 18.4-1.124 35.243-11.447 44.515-27.507 9.824-17.015 9.827-38.172.008-55.213-1.785-3.099-5.089-5.008-8.665-5.008-.003 0-.006 0-.009 0-15.56.014-30.273 6.644-40.606 17.837.018-6.787.161-13.736.434-20.852 8.552-16.619 8.141-36.66-1.248-52.922-9.823-17.016-28.144-27.597-47.811-27.613-.003 0-.005 0-.008 0-3.575 0-6.879 1.909-8.665 5.008-9.819 17.041-9.816 38.197.008 55.213 8.081 13.997 21.911 23.633 37.51 26.623-.986 36.761 1.407 70.922 7.142 102.031-.4-.245-.8-.489-1.207-.724-17.016-9.825-38.172-9.826-55.213-.009-3.101 1.787-5.011 5.095-5.008 8.674.017 19.668 10.598 37.988 27.613 47.813 8.511 4.914 18.056 7.371 27.606 7.371 7.593 0 15.188-1.56 22.266-4.667 9.853 26.099 22.886 49.869 38.919 70.908 5.992 7.863 12.228 15.148 18.631 21.931-19.143.464-36.868 10.937-46.495 27.577-1.792 3.099-1.792 6.918 0 10.016 9.849 17.024 28.173 27.6 47.82 27.6 18.482 0 35.79-9.359 45.977-24.64 18.168 12.776 36.317 23.118 53.073 32.335-16.978 9.932-30.333 19.445-38.366 31.345-3.09 4.578-1.884 10.793 2.694 13.883 1.715 1.158 3.661 1.713 5.585 1.713 3.211 0 6.366-1.544 8.298-4.406 7.213-10.686 23.103-20.506 42.38-31.232 19.277 10.725 35.167 20.546 42.38 31.232 1.932 2.862 5.086 4.406 8.298 4.406 1.924 0 3.87-.555 5.585-1.713 4.578-3.09 5.784-9.305 2.694-13.883-8.033-11.9-21.388-21.413-38.366-31.345 16.756-9.217 34.905-19.559 53.073-32.335 10.187 15.281 27.495 24.64 45.977 24.64 19.647 0 37.971-10.575 47.82-27.6 1.792-3.098 1.792-6.917 0-10.015-9.626-16.641-27.351-27.114-46.495-27.578 6.403-6.783 12.639-14.068 18.631-21.931 16.033-21.04 29.066-44.809 38.919-70.908 7.078 3.107 14.671 4.667 22.266 4.667 9.548 0 19.096-2.458 27.606-7.371 17.015-9.824 27.596-28.146 27.613-47.813.003-3.578-1.907-6.886-5.008-8.673zm-128.338 59.654c7.892 6.634 12.607 16.52 12.607 26.995s-4.715 20.361-12.607 26.995c-7.892-6.634-12.607-16.52-12.607-26.995s4.715-20.361 12.607-26.995zm-245.31 0c7.892 6.634 12.607 16.52 12.607 26.995s-4.715 20.361-12.607 26.995c-7.893-6.634-12.607-16.52-12.607-26.995s4.714-20.361 12.607-26.995zm-49.163-126.632c5.238-9.072 14.264-15.276 24.417-17.075 3.518 9.691 2.658 20.61-2.58 29.682-5.237 9.072-14.263 15.276-24.416 17.075-3.518-9.692-2.658-20.611 2.579-29.682zm-50.086-70.944c-5.238-9.071-6.097-19.991-2.58-29.682 10.152 1.799 19.178 8.003 24.417 17.075 5.237 9.071 6.097 19.991 2.579 29.683-10.152-1.799-19.179-8.004-24.416-17.076zm3.517 177.088c-9.072-5.237-15.276-14.264-17.075-24.416 9.69-3.517 20.612-2.658 29.682 2.579 9.072 5.238 15.276 14.265 17.075 24.417-9.691 3.517-20.611 2.657-29.682-2.58zm98.746 158.057c-10.475 0-20.361-4.715-26.995-12.607 6.634-7.893 16.52-12.607 26.995-12.607s20.361 4.715 26.995 12.607c-6.634 7.892-16.521 12.607-26.995 12.607zm319.708-347.752c5.238-9.072 14.264-15.276 24.416-17.075 3.518 9.691 2.658 20.61-2.579 29.683-5.238 9.072-14.265 15.276-24.416 17.075-3.518-9.692-2.658-20.612 2.579-29.683zm-25.67 113.232c-10.152-1.799-19.179-8.003-24.416-17.075-5.237-9.071-6.097-19.99-2.579-29.682 10.152 1.799 19.179 8.003 24.416 17.075s6.097 19.991 2.579 29.682zm-27.761 221.912c-6.634 7.893-16.521 12.607-26.995 12.607-10.475 0-20.361-4.715-26.996-12.607 6.634-7.893 16.52-12.607 26.996-12.607 10.475 0 20.361 4.715 26.995 12.607zm71.751-145.449c-9.072 5.236-19.991 6.098-29.683 2.58 1.799-10.152 8.003-19.18 17.075-24.417 9.072-5.236 19.992-6.096 29.682-2.579-1.798 10.152-8.003 19.178-17.074 24.416z"/><path d="m310.917 127.296c0 5.522 4.48 10 10.003 10s10-4.478 10-10-4.477-10-10-10h-.007c-5.523 0-9.996 4.478-9.996 10z"/></g></g></svg>