<svg id="Layer_1" enable-background="new 0 0 512 512" height="512" viewBox="0 0 512 512" width="512" xmlns="http://www.w3.org/2000/svg"><g><g clip-rule="evenodd" fill-rule="evenodd"><path d="m352 422h-192-24l-10 80h260l-10-80z" fill="#c68a65"/><path d="m231.586 320.75c-10.949 42.314-35.606 101.25-71.586 101.25h192c-35.979 0-60.637-58.935-71.585-101.25z" fill="#ffad95"/><path d="m231.586 320.75h48.829 5.585c11 0 20-9 20-20 0-3.29-.805-6.402-2.229-9.147-3.335-6.432-10.061-10.852-17.771-10.852h-60c-7.71 0-14.436 4.421-17.771 10.852-1.423 2.745-2.229 5.857-2.229 9.148 0 11 9 20 20 20h5.586z" fill="#ff764e"/><path d="m226 280.75h60c7.71 0 14.437 4.421 17.77 10.853 48.045-19.139 82.23-66.196 82.23-120.853v-120.751h-260v120.751c0 54.656 34.185 101.714 82.229 120.852 3.334-6.431 10.061-10.852 17.771-10.852z" fill="#ffad95"/><path d="m126 49.999h260c11 0 20-9 20-20s-9-20-20-20h-260c-11 0-20 8.999-20 20s9 20 20 20z" fill="#ff764e"/></g><g><path d="m276.807 452h-41.613c-5.522 0-10 4.478-10 10s4.478 10 10 10h41.613c5.522 0 10-4.478 10-10s-4.478-10-10-10z"/><path d="m456 80.001h-60v-21.722c11.639-4.128 20-15.243 20-28.28 0-16.542-13.458-29.999-30-29.999h-260c-16.542 0-30 13.458-30 30 0 13.036 8.361 24.151 20 28.279v21.722h-60c-5.522 0-10 4.478-10 10v70c0 44.112 35.888 80 80 80h8.455c1.922 3.35 3.976 6.639 6.186 9.848 14.156 20.547 33.26 36.792 55.57 47.393-.135 1.152-.212 2.321-.212 3.509 0 14.011 9.657 25.807 22.664 29.089-12.016 40.036-33.368 82.16-58.663 82.16h-24c-5.043 0-9.297 3.755-9.923 8.76l-10 80c-.355 2.846.527 5.708 2.426 7.858s4.629 3.382 7.497 3.382h260c2.868 0 5.599-1.231 7.497-3.382s2.781-5.013 2.426-7.858l-10-80c-.626-5.005-4.88-8.76-9.923-8.76h-24c-15.309 0-28.243-16.076-36.398-29.562-10.481-17.331-17.799-37.745-22.262-52.6 13.005-3.283 22.66-15.078 22.66-29.088 0-1.188-.077-2.357-.212-3.51 22.314-10.602 41.422-26.851 55.577-47.402 2.208-3.206 4.259-6.492 6.18-9.838h8.455c44.112 0 80-35.888 80-80v-70c0-5.521-4.478-9.999-10-9.999zm-390 80v-60h50v70.749c0 16.98 3.08 33.595 8.997 49.226-32.622-.54-58.997-27.227-58.997-59.975zm308.672 331.999h-237.344l7.5-60h222.344zm-62.094-80h-113.155c4.859-5.326 9.545-11.705 14.045-19.137 12.783-21.11 21.174-45.982 25.763-62.113h33.54c4.593 16.149 12.967 40.956 25.717 62.038 4.513 7.464 9.215 13.868 14.09 19.212zm-26.578-101.25h-60c-5.514 0-10-4.486-10-10s4.486-10 10-10h60c5.514 0 10 4.486 10 10s-4.486 10-10 10zm20.948-31.447c-5.411-5.287-12.803-8.553-20.948-8.553h-60c-8.145 0-15.537 3.267-20.948 8.553-42.161-19.852-69.052-61.742-69.052-108.553v-110.751h74.997c5.522 0 10-4.478 10-10s-4.478-10-10-10h-84.997c-5.514 0-10-4.486-10-10s4.486-9.999 10-9.999h260c5.514 0 10 4.486 10 10s-4.486 9.999-10 9.999h-85.003c-5.522 0-10 4.478-10 10s4.478 10 10 10h75.003v110.751c0 46.808-26.893 88.701-69.052 108.553zm139.052-119.302c0 32.748-26.375 59.435-58.997 59.975 5.917-15.631 8.997-32.246 8.997-49.226v-70.749h50z"/><path d="m256 59.999c5.522 0 10-4.478 10-10s-4.478-10-10-10h-.007c-5.522 0-9.996 4.478-9.996 10s4.481 10 10.003 10z"/><path d="m281.023 140.801c0-16.542-13.416-30-29.907-30-8.746 0-17.027 3.824-22.721 10.493-3.587 4.2-3.089 10.512 1.111 14.098 4.2 3.587 10.513 3.089 14.098-1.111 1.889-2.211 4.626-3.479 7.512-3.479 5.463 0 9.907 4.486 9.907 10 0 2.718-1.063 5.26-2.991 7.158-2.133 2.101-3.213 5.046-2.942 8.027.27 2.98 1.86 5.685 4.336 7.368 4.116 2.799 6.574 7.452 6.574 12.446 0 8.271-6.677 15-14.884 15-3.292 0-6.41-1.061-9.018-3.066-4.376-3.37-10.656-2.553-14.023 1.826-3.368 4.377-2.551 10.655 1.826 14.023 6.135 4.722 13.471 7.217 21.215 7.217 19.235 0 34.884-15.701 34.884-35 0-8.172-2.833-15.955-7.852-22.125 1.883-3.969 2.875-8.341 2.875-12.875z"/></g></g></svg>