<svg id="Layer_1" enable-background="new 0 0 512.002 512.002" height="512" viewBox="0 0 512.002 512.002" width="512" xmlns="http://www.w3.org/2000/svg"><g><g clip-rule="evenodd" fill-rule="evenodd"><path d="m302.767 150.314c.706-1.393 1.363-2.814 1.968-4.262 3.247-7.762 5.042-16.236 5.042-25.072 0-17.877-7.253-34.102-18.979-45.882-11.757-11.812-27.958-19.118-45.813-19.118-9.593 0-18.761 2.138-27.055 5.971-8.536 3.945-16.07 9.702-22.113 16.779-7.162 8.37-6.183 20.963 2.188 28.125 8.37 7.162 20.963 6.183 28.125-2.188 2.33-2.729 5.233-4.948 8.519-6.467 3.085-1.426 6.583-2.221 10.336-2.221 6.882 0 13.078 2.768 17.532 7.243 4.485 4.506 7.259 10.782 7.259 17.757 0 3.514-.682 6.809-1.917 9.759-1.296 3.097-3.182 5.867-5.511 8.16-7.853 7.723-7.958 20.35-.234 28.203 1.16 1.18 2.432 2.184 3.781 3.013 4.504 3.234 8.256 7.537 10.914 12.566 2.658 5.028 4.164 10.828 4.164 17.048 0 10.082-4.028 19.17-10.539 25.712-6.48 6.51-15.476 10.538-25.45 10.538-4.118 0-7.999-.655-11.55-1.863-3.777-1.284-7.239-3.152-10.274-5.487-8.716-6.731-21.238-5.122-27.969 3.594s-5.122 21.238 3.594 27.969c6.564 5.051 13.926 9.046 21.836 11.737 7.722 2.626 15.919 4.051 24.363 4.051 20.947 0 39.948-8.565 53.731-22.413 13.752-13.816 22.259-32.854 22.259-53.837 0-12.817-3.202-24.952-8.852-35.641-2.607-4.932-5.751-9.549-9.355-13.774z" fill="#ff764e"/><g fill="#cbe558"><path d="m64.597 103.835c7.795-13.528 8.364-30.728-.003-45.221-8.368-14.494-23.548-22.6-39.161-22.614-7.795 13.528-8.365 30.728.004 45.221 8.368 14.494 23.548 22.601 39.16 22.614z"/><path d="m114.684 119.551c-15.612.013-30.793 8.12-39.161 22.614-8.368 14.493-7.798 31.693-.003 45.221 15.613-.013 30.793-8.12 39.161-22.614 8.367-14.494 7.798-31.694.003-45.221z"/><ellipse cx="43.918" cy="242.391" rx="22.607" ry="39.164" transform="matrix(.5 -.866 .866 .5 -187.958 159.23)"/><ellipse cx="133.346" cy="300.793" rx="22.607" ry="39.164"/><path d="m136.36 376.151c-16.736 0-31.347 9.093-39.164 22.607 7.818 13.514 22.429 22.607 39.164 22.607s31.346-9.093 39.164-22.607c-7.818-13.514-22.428-22.607-39.164-22.607z"/><path d="m375.642 376.151c-16.735 0-31.346 9.093-39.164 22.607 7.818 13.514 22.429 22.607 39.164 22.607 16.736 0 31.346-9.093 39.164-22.607-7.817-13.514-22.428-22.607-39.164-22.607z"/><ellipse cx="378.657" cy="300.793" rx="22.607" ry="39.164"/><path d="m434.167 261.973c13.528 7.795 30.728 8.364 45.221-.003 14.493-8.368 22.6-23.548 22.613-39.161-13.528-7.795-30.728-8.364-45.221.004-14.492 8.367-22.599 23.547-22.613 39.16z"/><ellipse cx="416.901" cy="153.468" rx="22.607" ry="39.164" transform="matrix(.866 -.5 .5 .866 -20.88 229.011)"/><path d="m447.405 103.835c15.613-.013 30.793-8.12 39.161-22.614 8.368-14.493 7.798-31.693.004-45.221-15.613.013-30.793 8.12-39.161 22.614-8.368 14.493-7.799 31.693-.004 45.221z"/></g></g><g><path d="m244.986 225.98c-5.803 0-11.241-1.824-15.712-5.266-13.067-10.089-31.905-7.671-41.995 5.396-4.889 6.329-7.02 14.184-6 22.116 1.019 7.932 5.066 14.992 11.41 19.892 14.97 11.518 33.543 17.861 52.297 17.861 16.762 0 33.023-4.873 47.028-14.092 4.613-3.036 5.892-9.237 2.854-13.851-3.036-4.615-9.241-5.891-13.851-2.854-10.731 7.063-23.19 10.797-36.032 10.797-14.367 0-28.608-4.87-40.087-13.701-2.102-1.623-3.445-3.968-3.783-6.602-.339-2.633.369-5.24 1.991-7.342 3.352-4.338 9.605-5.141 13.956-1.781 8.012 6.166 17.668 9.426 27.923 9.426 12.327 0 23.882-4.788 32.536-13.482 8.676-8.715 13.453-20.352 13.453-32.768 0-14.976-7.194-29.083-19.246-37.737-.194-.14-.395-.272-.599-.397-.682-.419-1.316-.925-1.886-1.504-3.845-3.909-3.792-10.218.121-14.066 6.714-6.611 10.411-15.506 10.411-25.045 0-19.299-15.607-35-34.791-35-10.349 0-19.746 4.33-26.454 12.187-1.728 2.019-4.138 3.244-6.786 3.45-2.655.206-5.221-.632-7.239-2.36-2.019-1.727-3.244-4.137-3.45-6.786-.205-2.648.633-5.22 2.367-7.247 10.441-12.229 25.591-19.243 41.563-19.243 30.212 0 54.791 24.673 54.791 55 0 8.577-2.051 17.157-5.93 24.814-1.824 3.599-1.307 7.94 1.312 11.01 7.154 8.386 12.135 18.521 14.403 29.309 1.138 5.404 6.436 8.862 11.845 7.728 5.404-1.137 8.864-6.439 7.728-11.845-2.512-11.941-7.575-23.269-14.758-33.104 3.546-8.852 5.4-18.383 5.4-27.911 0-41.355-33.551-75-74.791-75-21.833 0-42.525 9.57-56.767 26.249-10.735 12.548-9.262 31.489 3.284 42.224 6.077 5.201 13.809 7.72 21.793 7.104 7.976-.62 15.231-4.31 20.438-10.396 2.854-3.341 6.849-5.181 11.251-5.181 8.294 0 14.791 6.589 14.791 15 0 4.139-1.578 7.972-4.44 10.79-11.771 11.577-11.929 30.573-.352 42.345 1.605 1.632 3.392 3.076 5.316 4.297 6.689 4.921 10.674 12.867 10.674 21.318 0 7.091-2.709 13.716-7.628 18.657-4.87 4.895-11.392 7.591-18.359 7.591z"/><path d="m506.995 214.145c-17.041-9.82-38.196-9.816-55.214.008-.407.235-.807.479-1.207.724 5.735-31.11 8.128-65.271 7.142-102.032 15.598-2.991 29.428-12.627 37.509-26.623 9.825-17.016 9.828-38.172.008-55.214-1.785-3.098-5.089-5.007-8.664-5.007-.003 0-.006 0-.008 0-19.668.016-37.988 10.597-47.813 27.613-9.389 16.262-9.801 36.303-1.248 52.922.272 7.116.415 14.066.434 20.853-10.333-11.194-25.046-17.824-40.607-17.838-.003 0-.006 0-.009 0-3.575 0-6.88 1.909-8.665 5.008-9.818 17.041-9.815 38.198.009 55.213 9.273 16.061 26.116 26.384 44.515 27.507-4.976 33.528-13.604 61.942-24.712 86.236-4.201-12.685-12.931-23.675-24.802-30.542-3.098-1.791-6.917-1.791-10.015 0-17.023 9.849-27.6 28.172-27.6 47.82 0 17.64 8.528 34.207 22.589 44.537-34.645 39.583-76.281 62.337-110.108 80.821-.848.463-1.69.924-2.528 1.381-.838-.458-1.68-.919-2.529-1.382-33.827-18.484-75.463-41.238-110.109-80.821 14.061-10.33 22.589-26.897 22.589-44.537 0-19.649-10.576-37.973-27.601-47.82-3.098-1.791-6.917-1.791-10.015 0-11.87 6.867-20.6 17.857-24.801 30.542-11.108-24.294-19.736-52.708-24.712-86.236 18.4-1.124 35.243-11.447 44.514-27.507 9.824-17.015 9.827-38.172.009-55.213-1.786-3.099-5.089-5.008-8.665-5.008-.003 0-.006 0-.009 0-15.56.014-30.273 6.644-40.606 17.837.018-6.787.161-13.736.434-20.852 8.552-16.62 8.141-36.661-1.249-52.922-9.821-17.015-28.142-27.596-47.811-27.612-.003 0-.005 0-.008 0-3.575 0-6.88 1.909-8.665 5.008-9.818 17.041-9.814 38.197.009 55.213 8.081 13.996 21.911 23.631 37.51 26.623-.986 36.761 1.407 70.922 7.142 102.032-.399-.245-.799-.489-1.206-.724-17.019-9.825-38.176-9.827-55.214-.009-3.102 1.787-5.011 5.095-5.008 8.674.018 19.668 10.598 37.988 27.613 47.813 8.513 4.913 18.057 7.369 27.607 7.369 7.593 0 15.187-1.559 22.265-4.667 9.853 26.099 22.886 49.869 38.92 70.909 5.992 7.863 12.228 15.148 18.631 21.931-19.145.464-36.869 10.938-46.495 27.578-1.792 3.098-1.792 6.917 0 10.015 9.849 17.023 28.172 27.6 47.82 27.6 18.482 0 35.79-9.359 45.977-24.64 18.168 12.776 36.317 23.118 53.073 32.334-16.978 9.932-30.333 19.445-38.366 31.345-3.091 4.577-1.885 10.793 2.693 13.883 1.716 1.158 3.661 1.713 5.586 1.713 3.211 0 6.365-1.544 8.297-4.406 7.213-10.685 23.104-20.506 42.38-31.231 19.276 10.726 35.167 20.546 42.379 31.231 1.932 2.862 5.085 4.406 8.297 4.406 1.925 0 3.871-.555 5.586-1.712 4.577-3.091 5.784-9.306 2.694-13.884-8.033-11.9-21.388-21.413-38.365-31.345 16.756-9.217 34.904-19.559 53.072-32.334 10.188 15.281 27.496 24.64 45.978 24.64 19.647 0 37.971-10.575 47.82-27.6 1.792-3.098 1.792-6.917 0-10.016-9.627-16.641-27.352-27.113-46.495-27.577 6.403-6.783 12.638-14.067 18.631-21.93 16.033-21.04 29.066-44.81 38.919-70.909 7.077 3.107 14.671 4.666 22.265 4.666 9.549 0 19.096-2.457 27.606-7.37 17.016-9.824 27.596-28.145 27.613-47.813.004-3.579-1.905-6.886-5.006-8.672zm-128.339 59.653c7.893 6.634 12.607 16.52 12.607 26.995s-4.715 20.361-12.607 26.995c-7.893-6.634-12.607-16.521-12.607-26.995s4.715-20.361 12.607-26.995zm-245.31 0c7.893 6.634 12.607 16.52 12.607 26.995s-4.715 20.361-12.607 26.995c-7.893-6.634-12.607-16.521-12.607-26.995s4.714-20.361 12.607-26.995zm-49.162-126.633c5.237-9.072 14.264-15.276 24.415-17.075 3.519 9.691 2.658 20.61-2.579 29.682s-14.264 15.276-24.415 17.075c-3.519-9.692-2.659-20.611 2.579-29.682zm-50.087-70.943c-5.238-9.072-6.097-19.992-2.579-29.683 10.152 1.799 19.179 8.003 24.416 17.075 5.237 9.071 6.098 19.99 2.579 29.682-10.153-1.799-19.179-8.003-24.416-17.074zm3.516 177.088c-9.071-5.237-15.275-14.265-17.074-24.416 9.69-3.517 20.61-2.657 29.683 2.579 9.071 5.237 15.275 14.265 17.074 24.417-9.691 3.516-20.61 2.658-29.683-2.58zm98.747 158.056c-10.475 0-20.361-4.715-26.995-12.607 6.634-7.893 16.52-12.607 26.995-12.607s20.36 4.715 26.995 12.607c-6.634 7.892-16.52 12.607-26.995 12.607zm319.708-347.752c5.238-9.072 14.265-15.276 24.417-17.075 3.518 9.691 2.657 20.61-2.58 29.683-5.237 9.071-14.264 15.275-24.416 17.074-3.517-9.692-2.658-20.61 2.579-29.682zm-25.671 113.233c-10.151-1.799-19.178-8.004-24.415-17.075s-6.098-19.99-2.579-29.682c10.151 1.799 19.179 8.003 24.416 17.075 5.238 9.071 6.097 19.99 2.578 29.682zm-27.759 221.912c-6.635 7.893-16.521 12.607-26.995 12.607s-20.361-4.715-26.996-12.607c6.635-7.893 16.521-12.607 26.996-12.607 10.474-.001 20.36 4.714 26.995 12.607zm71.751-145.449c-9.071 5.236-19.992 6.099-29.683 2.579 1.799-10.152 8.003-19.179 17.075-24.416 9.072-5.236 19.99-6.098 29.682-2.58-1.799 10.152-8.003 19.178-17.074 24.417z"/><path d="m315.194 218.862c-5.522 0-9.996 4.478-9.996 10s4.481 10 10.004 10 10-4.478 10-10-4.478-10-10-10z"/></g></g></svg>